<svg xmlns="http://www.w3.org/2000/svg" viewBox="0 0 64 64">
  <rect width="64" height="64" rx="18" fill="#0f1823"/>
  <path fill="#ffffff" d="M22.1 9.6C11.4 13.1 6.7 25 11.9 34.3c3.4 6.1 8.9 8.2 12.2 4.6 2.1-2.4 1.2-5.6-3-9.9-4.4-4.6-5.2-8.9-2.1-11.8 2.7-2.5 7.7-2.4 10 .2 1 1.1 1.3-4.3.4-6-.7-1.4-3.7-2.8-7.3-1.8z"/>
  <path fill="#0d74aa" d="M31.2 9.2c1 2 1.2 4.1 1.2 7.8.1 7.6 3.7 12 10.1 12.1 5 .1 7.7-3.2 5.1-6.2-1-1.2-2.4-1.9-6-3.1-6.8-2.3-8.3-6.4-3.8-9.4 1.3-.9-.7-1.7-4.7-1.7-1.8 0-2.4.1-1.9.5z"/>
  <path fill="#ffffff" d="M41.9 11.1c-2.8 1.6-3.8 5.2-2.4 8.1.7 1.3.7 1.3 2.1.6 4.6-2.3 10 1.8 9.2 7-.4 2.4-2.2 4.7-6.6 9.3-4.7 4.9-4.5 10.4.4 11.1 5.9.8 11.7-7.1 11.6-15.7-.1-8.9-8.4-23.6-14.3-20.4z"/>
  <path fill="#0d74aa" d="M18 21.6c-2.9 3.3 1.1 13.6 7.6 19.6 5.8 5.4 3.1 10.4-5.1 9.3-2.3-.3-2.4-.2-.6.9 5.5 3.3 14.4 3.4 19.9.2.8-.5.8-.5-.9-.5-3.4 0-5.4-1.3-5.7-3.8-.1-1.1.1-2.6.8-4.7 1.7-5.4.2-10.6-4.4-15.3-4.1-4.2-9.8-7.8-11.6-5.7z"/>
</svg>
